<?xml version="1.0" encoding="UTF-8"?>
<svg width="44px" height="44px" viewBox="0 0 44 36" version="1.1" xmlns="http://www.w3.org/2000/svg" xmlns:xlink="http://www.w3.org/1999/xlink">
    <!-- Generator: Sketch 57.1 (83088) - https://sketch.com -->
    <title>Report designer</title>
    <desc>Created with Sketch.</desc>
    <g id="Page-1" stroke="none" stroke-width="1" fill="none" fill-rule="evenodd">
        <g id="Report-SB_V2" transform="translate(-267.000000, -325.000000)">
            <g id="Group-19-Copy" transform="translate(247.000000, 307.000000)">
                <g id="Report-designer" transform="translate(16.000000, 16.000000)">
                    <g id="Group-23">
                        <g id="Group-22">
                            <g id="Group-37-Copy">
                                <g id="Group-32" transform="translate(5.000000, 3.000000)">
                                    <g id="Page-1-Copy-34" transform="translate(14.463694, 9.639306)">
                                        <g id="Group-7" transform="translate(2.162162, 5.162162)" stroke="#283A5E" stroke-width="1.13606939">
                                            <path d="M1.16030421,1.41402524 L11.6109974,1.41402524 C12.0014697,1.41402524 12.31801,1.09748491 12.31801,0.70701262 C12.31801,0.316540332 12.0014697,-5.70261698e-14 11.6109974,-5.7620575e-14 L1.16030421,-5.7620575e-14 C0.769831919,-5.75488464e-14 0.453291587,0.316540332 0.453291587,0.70701262 C0.453291587,1.09748491 0.769831919,1.41402524 1.16030421,1.41402524 Z" id="Stroke-12" stroke-linecap="round"></path>
                                            <path d="M9.55205105,1.42836689 L9.03140499,1.42836689 L3.03910673,1.42836689 C2.9663652,4.59986638 1.80593734,7.3853837 1.77635684e-14,9.3075425 C2.94116341,11.8156033 5.19156867,15.4604516 6.29471974,19.7449773 C7.39958911,15.4604516 9.64999437,11.8156033 12.5911578,9.3075425 C10.7852204,7.3853837 9.62479258,4.59986638 9.55205105,1.42836689 Z" id="Stroke-15" stroke-linecap="round" stroke-linejoin="round"></path>
                                            <path d="M6.3061751,11.0087218 L6.3061751,19.7509802" id="Stroke-19" stroke-linecap="round" stroke-linejoin="round"></path>
                                            <path d="M7.9776091,9.60908996 C7.9776091,8.66445307 7.23760686,7.8990273 6.32563228,7.8990273 C5.41313657,7.8990273 4.67365546,8.66445307 4.67365546,9.60908996 C4.67365546,10.5531871 5.41313657,11.3186128 6.32563228,11.3186128 C7.23760686,11.3186128 7.9776091,10.5531871 7.9776091,9.60908996" id="Fill-21"></path>
                                        </g>
                                        <path d="M13.4200451,0.371794457 L9.4172154,0.371794457 L4.85880078,0.371794457 C4.75570255,4.90250802 3.09713022,8.94281114 0.51721974,11.6887523 C4.71969999,15.2716963 7.93374642,20.4786224 9.51049475,26.5993735 L9.51131299,26.5922272 L9.51131299,26.5993735 C11.0888796,20.4786224 14.302926,15.2716963 18.5054062,11.6887523 C15.9246775,8.94281114 14.2669234,4.90250802 14.1638252,0.371794457 L13.4200451,0.371794457 Z" id="Fill-13"></path>
                                    </g>
                                    <path d="M9.5007161,33.8258258 L22.5505506,33.8258258 C23.8950516,33.8258258 24.984985,32.7358924 24.984985,31.3913914 L24.984985,10.6054447 C24.984985,9.98593195 24.7487975,9.38972376 24.324539,8.93828071 L16.6455632,0.767270385 C16.1854475,0.277672581 15.5434471,-2.49652028e-15 14.8715747,0 L2.4344344,0 C1.08993341,2.46980826e-16 -1.64653884e-16,1.08993341 0,2.4344344 L0,4.6761678 C-2.63880218e-15,4.88629436 0.0272049234,5.09553669 0.0809364071,5.29867728" id="Stroke-9" stroke="#283A5E" stroke-width="2" stroke-linecap="round" transform="translate(12.492492, 16.912913) scale(-1, 1) translate(-12.492492, -16.912913) "></path>
                                    <path d="M0,0.939606273 L0,6.96162833 C-8.76513711e-16,8.30612932 1.08993341,9.39606273 2.4344344,9.39606273 L9.25369814,9.39606273 L9.25369814,9.39606273" id="Path" stroke="#283A5E" stroke-width="2" transform="translate(4.626849, 5.167835) scale(-1, 1) translate(-4.626849, -5.167835) "></path>
                                </g>
                                <rect id="Rectangle" x="0" y="0" width="44" height="44"></rect>
                            </g>
                            <rect id="Rectangle" fill="#FF4800" x="9.32432432" y="15.972973" width="3.24324324" height="15.1351351"></rect>
                            <rect id="Rectangle" fill="#FF4800" x="14.7297297" y="24.6216216" width="3.24324324" height="6.48648649"></rect>
                        </g>
                    </g>
                </g>
            </g>
        </g>
    </g>
</svg>