<?xml version="1.0" encoding="UTF-8"?>
<svg width="44px" height="44px" viewBox="0 0 44 36" version="1.1" xmlns="http://www.w3.org/2000/svg" xmlns:xlink="http://www.w3.org/1999/xlink">
    <!-- Generator: Sketch 57.1 (83088) - https://sketch.com -->
    <title>Report viewer</title>
    <desc>Created with Sketch.</desc>
    <g id="Page-1" stroke="none" stroke-width="1" fill="none" fill-rule="evenodd">
        <g id="Report-SB_V2" transform="translate(-911.000000, -327.000000)">
            <g id="Group-19" transform="translate(891.000000, 307.000000)">
                <g id="Report-viewer" transform="translate(16.000000, 16.000000)">
                    <rect id="Rectangle" x="0" y="0" width="44" height="44"></rect>
                    <g id="Group-3" transform="translate(5.000000, 4.000000)">
                        <g id="Group-6" stroke="#283A5E">
                            <g id="Group-42-Copy">
                                <g id="Group-13">
                                    <g id="Page-1-Copy-33" transform="translate(0.000000, 0.135617)">
                                        <path d="M19.4659928,24.8317452 L24.5952703,38.7579606" id="Stroke-15" stroke-width="2" stroke-linecap="round"></path>
                                        <path d="M11.7720765,24.8317452 L6.64279902,38.7579606" id="Stroke-16" stroke-width="2" stroke-linecap="round"></path>
                                        <g id="Group-5">
                                            <polygon id="Stroke-11" stroke-width="2.10526316" points="3.09176074 24.7629592 30.7109474 24.7629592 30.7109474 1.37571996 3.09176074 1.37571996"></polygon>
                                            <g id="Group-4" stroke-linecap="round" stroke-width="2">
                                                <g id="Group-2">
                                                    <g id="Group">
                                                        <path d="M0.0834780191,1.37571996 L33.7192301,1.37571996" id="Stroke-13"></path>
                                                        <path d="M0.0834780191,24.7629592 L33.7192301,24.7629592" id="Stroke-14"></path>
                                                    </g>
                                                </g>
                                            </g>
                                        </g>
                                    </g>
                                </g>
                            </g>
                        </g>
                        <path d="M16.2015348,13.1430172 L15.9162768,6.69593666 C12.4842114,6.94590868 9.85050926,9.93183819 10.0065938,13.4625785 C10.1653694,17.0510047 13.1426369,19.8281664 16.6563328,19.6660966 C20.1700287,19.5040268 22.8898464,16.4640741 22.7301737,12.8756479 C22.7301737,12.8637444 22.7265855,12.854588 22.7256885,12.8426845 L16.2015348,13.1430172 Z" id="Stroke-18" stroke="#283A5E" stroke-width="2"></path>
                        <path d="M18.8259414,5.61648487 C18.7840428,5.61648487 18.7441715,5.62854753 18.7009213,5.62996666 L18.7009213,10.6302901 L23.6219807,10.6302901 C23.6077892,7.85942831 21.4675812,5.61648487 18.8259414,5.61648487" id="Fill-19" fill="#FF4800"></path>
                        <path d="M18.9980286,5 C18.9554484,5 18.9155716,5.01277041 18.8729914,5.01347988 L18.8729914,10.0138052 L23.7940507,10.0138052 C23.7805332,7.24262605 21.6393553,5 18.9980286,5 Z" id="Stroke-20" stroke="#FF4800" stroke-width="2"></path>
                    </g>
                </g>
            </g>
        </g>
    </g>
</svg>