<?xml version="1.0" encoding="UTF-8"?>
<svg width="44px" height="44px" viewBox="0 0 44 36" version="1.1" xmlns="http://www.w3.org/2000/svg" xmlns:xlink="http://www.w3.org/1999/xlink">
    <!-- Generator: Sketch 57.1 (83088) - https://sketch.com -->
    <title>Report writer</title>
    <desc>Created with Sketch.</desc>
    <g id="Page-1" stroke="none" stroke-width="1" fill="none" fill-rule="evenodd">
        <g id="Report-SB_V2" transform="translate(-588.000000, -325.000000)">
            <g id="Group-19-Copy-2" transform="translate(569.000000, 307.000000)">
                <g id="Report-writer" transform="translate(16.000000, 16.000000)">
                    <g id="Writer-Copy">
                        <rect id="Rectangle" x="0" y="0" width="44" height="44"></rect>
                        <g id="Group-12" transform="translate(4.000000, 3.000000)">
                            <path d="M9.08792327,39.3354755 L27.1706927,39.3354755 C29.0239522,39.3354755 30.5263158,37.8331119 30.5263158,35.9798524 L30.5263158,12.8761096 C30.5263158,11.9877586 30.1740568,11.1356562 29.5467711,10.506625 L20.4397345,1.37424548 C19.8101672,0.742926195 18.9552385,0.388107069 18.0636561,0.388107069 L3.35562306,0.388107069 C1.50236362,0.388107069 -6.71048034e-16,1.89047069 0,3.74373013 L0,16.2972214 L0,16.2972214" id="Stroke-9" stroke="#283A5E" stroke-width="2" stroke-linecap="round" transform="translate(15.263158, 19.861791) scale(-1, 1) translate(-15.263158, -19.861791) "></path>
                            <path d="M0,0.388107069 L0,8.61143138 C2.26958824e-16,10.4646908 1.50236362,11.9670544 3.35562306,11.9670544 L11.5789474,11.9670544 L11.5789474,11.9670544" id="Path" stroke="#283A5E" stroke-width="2" transform="translate(5.789474, 6.177581) scale(-1, 1) translate(-5.789474, -6.177581) "></path>
                            <g id="Group-21" transform="translate(7.570155, 10.188710)">
                                <path d="M-1.42108547e-14,14.0883431 L2.47164324,8.96859315 C2.59199834,8.71929019 2.89166541,8.61475728 3.14096838,8.73511238 C3.17821356,8.7530931 3.21309022,8.77561428 3.24480312,8.80216239 L6.95517814,11.9082628 C7.16745041,12.0859643 7.48358656,12.0579391 7.661288,11.8456668 C7.70046256,11.798871 7.73076218,11.7453148 7.75069586,11.6876334 L10.1267635,4.81209524 C10.2171856,4.55044438 10.502597,4.41163599 10.7642479,4.50205802 C10.8413447,4.52870134 10.9107744,4.5737574 10.9665111,4.63331572 L12.9586519,6.76204754 C13.1478112,6.96417646 13.4650129,6.97469048 13.6671418,6.78553124 C13.7118423,6.743699 13.7485012,6.69403185 13.7753035,6.63898909 L15.6629158,2.76247424 L15.6629158,2.76247424" id="Path-2" stroke="#FF4800" stroke-width="1.19779969" stroke-linecap="round"></path>
                                <polygon id="Path-3" fill="#FF4800" transform="translate(15.215255, 2.627721) rotate(-2.000000) translate(-15.215255, -2.627721) " points="13.6312372 2.57118812 16.7992733 4.2028095 16.6618995 1.05263158"></polygon>
                            </g>
                            <path d="M29.8886858,21.3821521 L36.1173006,27.0176055 L29.8886858,32.6530589 L29.8899121,29.3749817 C29.5961269,29.3769938 29.2995611,29.393378 29.0010089,29.4247571 C25.8738523,29.7534345 23.3019207,31.6459879 22.0290915,34.2124447 C21.9746109,33.9495301 21.9328824,33.6813127 21.9042251,33.4086563 C21.4162274,28.7656687 24.9033442,24.5936936 29.6929184,24.0902891 L29.8886559,24.0741521 L29.8886858,21.3821521 Z" id="Combined-Shape" fill="#FF4800"></path>
                            <path d="M29.5494253,20.952381 L35.77804,26.7149433 L29.5494253,32.4775057 L29.549666,29.6014071 C29.2562073,29.6034432 28.9599756,29.6198225 28.6617623,29.651166 C25.5346057,29.9798434 22.9627116,31.8727535 21.6899386,34.4397452 C21.6354517,34.1767716 21.593717,33.9084942 21.5650533,33.6357772 C21.0769471,28.9917574 24.563976,24.8189455 29.3535502,24.315541 L29.548464,24.299381 L29.5494253,20.952381 Z" id="Combined-Shape"></path>
                        </g>
                    </g>
                </g>
            </g>
        </g>
    </g>
</svg>